<svg height="36px" width="36px" version="1.1" id="Layer_1" xmlns="http://www.w3.org/2000/svg" xmlns:xlink="http://www.w3.org/1999/xlink" viewBox="-51.2 -51.2 614.40 614.40" xml:space="preserve" fill="#303030" stroke="#303030" stroke-width="3.584014"><g id="SVGRepo_bgCarrier" stroke-width="0"></g><g id="SVGRepo_tracerCarrier" stroke-linecap="round" stroke-linejoin="round"></g><g id="SVGRepo_iconCarrier"> <path style="fill:#FCC447;" d="M387.536,68.025c-76.79-35.265-166.389-4.301-214.743,100.988l-20.101,43.77 c-14.901,32.448-56.883,57.917-94.942,75.22c-25.294,11.5-25.457,47.337-0.206,58.933l166.739,76.574l166.739,76.573 c25.25,11.596,52.326-11.882,44.566-38.561c-11.677-40.143-19.717-88.585-4.814-121.033l20.101-43.77 C499.226,191.43,464.325,103.289,387.536,68.025z"></path> <path style="fill:#E8AF3D;" d="M111.073,312.491c38.059-17.303,80.041-42.773,94.942-75.22l20.101-43.77 c42.61-92.785,117.251-127.839,186.93-110.726c-7.869-5.62-16.39-10.562-25.51-14.751c-76.789-35.265-166.389-4.301-214.743,100.988 l-20.101,43.77c-14.901,32.447-56.883,57.917-94.942,75.22c-25.294,11.5-25.457,47.337-0.206,58.933 c0,0,23.752,10.907,53.323,24.488C85.616,359.828,85.779,323.991,111.073,312.491z"></path> <path style="fill:#FCC447;" d="M282.345,450.174c-3.456,7.524-8.197,14.07-13.836,19.474 c-18.385,17.599-46.352,23.195-70.892,11.925c-24.54-11.27-38.522-36.128-37.152-61.542c0.424-7.798,2.299-15.66,5.754-23.184 L282.345,450.174z"></path> <g> <path style="fill:#E8AF3D;" d="M282.345,450.174c-3.456,7.524-8.197,14.07-13.836,19.474l-108.044-49.619 c0.424-7.798,2.299-15.66,5.754-23.184L282.345,450.174z"></path> <path style="fill:#E8AF3D;" d="M198.213,411.538l-31.993-14.693c-14.726,32.064-0.667,70.002,31.398,84.727 c5.55,2.549,11.279,4.217,17.03,5.096C193.556,468.568,186.037,438.052,198.213,411.538z"></path> </g> <path d="M459.059,300.428c23.914-52.074,29.333-102.889,15.672-146.95c-9.848-31.757-29.482-58.641-56.451-77.937 c7.89-3.91,14.554-10.418,18.507-19.025l0,0c9.172-19.974,0.384-43.685-19.587-52.857c-9.677-4.443-20.503-4.852-30.485-1.153 c-9.984,3.7-17.929,11.065-22.371,20.741c-3.848,8.38-4.665,17.622-2.414,26.432c-20.217-4.949-40.894-5.812-61.018-2.404 c-4.84,0.819-8.1,5.409-7.281,10.251s5.407,8.101,10.251,7.281c26.494-4.487,54.173-0.582,80.036,11.293 c0.004,0.001,0.007,0.004,0.012,0.006c0.004,0.001,0.008,0.004,0.012,0.005c36.23,16.643,62.441,45.989,73.803,82.636 c12.343,39.808,7.21,86.235-14.846,134.263l-20.101,43.77c-13.263,28.88-11.798,71.686,4.358,127.226 c2.653,9.126-0.046,18.27-7.225,24.461c-7.136,6.154-16.515,7.476-25.095,3.537L61.36,338.855 c-8.578-3.939-13.689-11.917-13.671-21.34c0.019-9.479,5.195-17.487,13.847-21.419c52.655-23.94,86.078-50.724,99.342-79.604 l20.101-43.77c22.057-48.027,53.927-82.176,92.165-98.755c4.506-1.952,6.573-7.189,4.62-11.693 c-1.954-4.505-7.187-6.573-11.693-4.621c-42.323,18.35-77.335,55.574-101.25,107.649l-20.101,43.77 c-11.268,24.533-42.576,49.028-90.543,70.837c-14.938,6.792-24.237,21.189-24.269,37.573c-0.03,16.329,9.178,30.711,24.032,37.533 l101.108,46.433c-11.005,34.508,5.231,72.712,38.966,88.204c9.758,4.481,20.127,6.667,30.414,6.667 c17.801,0,35.358-6.545,49.077-19.075c3.626-3.311,3.88-8.935,0.569-12.561c-3.311-3.625-8.935-3.88-12.561-0.569 c-16.363,14.944-39.947,18.625-60.08,9.379c-24.809-11.393-37.1-39.043-30.076-64.554l216.06,99.223 c5.608,2.576,11.51,3.839,17.35,3.839c9.625,0,19.084-3.432,26.778-10.069c12.408-10.701,17.269-27.136,12.686-42.894 c-14.715-50.594-16.538-90.305-5.272-114.839L459.059,300.428z M380.504,30.666c2.461-5.359,6.861-9.439,12.39-11.487 c2.5-0.926,5.095-1.387,7.683-1.387c3.137,0,6.266,0.678,9.203,2.026c11.063,5.08,15.93,18.213,10.849,29.276l0,0 c-5.081,11.063-18.217,15.93-29.277,10.849c-5.359-2.461-9.439-6.861-11.487-12.39C377.816,42.024,378.041,36.026,380.504,30.666z"></path> <path d="M398.169,452.834c1.202,0.552,2.463,0.814,3.705,0.814c3.368,0,6.589-1.923,8.085-5.183c2.05-4.462,0.094-9.741-4.37-11.789 l-38.511-17.686c-4.463-2.05-9.741-0.092-11.789,4.37c-2.05,4.462-0.094,9.741,4.37,11.789L398.169,452.834z"></path> <path d="M84.529,299.015c-2.05,4.462-0.094,9.741,4.37,11.789l237.582,109.108c1.202,0.552,2.463,0.814,3.705,0.814 c3.368,0,6.589-1.923,8.085-5.183c2.05-4.462,0.094-9.741-4.37-11.789L96.319,294.645C91.855,292.594,86.576,294.553,84.529,299.015 z"></path> </g></svg>